PathFileType	4	(X/Y/Z)	D:\TRACE\v60_Jaco2_6-2-23\ArmBody_Mo1_DMP_1-platform.trc
DataRate	CameraRate	NumFrames	NumMarkers	Units	OrigDataRate	OrigDataStartFrame	OrigNumFrames
100.00	100.00	      77	5	mm	100.00	1	      5792
Frame#	Time	Left_Front			Right_Front			Left_Aft			Right_Aft			Post			
		X1	Y1	Z1	X2	Y2	Z2	X3	Y3	Z3	X4	Y4	Z4	X5	Y5	Z5	

1	0.000				780.10315	9.69739	-632.91119	-719.49554	6.79314	481.07962	698.12274	8.97028	583.33533	3.15299	1307.48206	-965.97382	
2	0.010				780.04803	9.67588	-632.92682	-719.16168	6.33206	481.12650	698.11859	8.94840	583.36426	3.16551	1307.48364	-965.95386	
3	0.020				780.04999	9.66188	-632.95331	-719.45520	6.68914	481.08533	698.14105	8.96081	583.36267	3.09176	1307.49426	-965.95105	
4	0.030				780.08496	9.70060	-632.89075	-719.45819	6.72223	481.07605	698.13910	8.94470	583.33295	3.13097	1307.51318	-965.91980	
5	0.040				780.16339	9.73972	-632.89105	-719.19611	6.38554	481.07770	698.15082	8.95789	583.35040	3.20435	1307.53284	-965.96100	
6	0.050				780.02075	9.70902	-632.92432	-719.48834	6.83003	481.02557	698.10638	8.95116	583.35034	3.23316	1307.54053	-965.95203	
7	0.060				780.06946	9.68674	-632.90082	-719.48920	6.80538	481.03479	698.13934	8.95778	583.34338	3.21761	1307.50964	-965.91229	
8	0.070				780.16028	9.68558	-632.86664	-719.46851	6.76309	481.06299	698.12140	8.94395	583.33533	3.12746	1307.50391	-965.96558	
9	0.080				780.07941	9.67635	-632.88470	-719.46881	6.74174	481.07800	698.13104	8.96679	583.35272	3.17179	1307.46387	-965.91040	
10	0.090				780.07953	9.64069	-632.87115	-719.18481	6.33406	481.13922	698.11456	8.95923	583.33771	3.13637	1307.48682	-965.92889	
11	0.100				780.04498	9.70214	-632.93347	-719.45630	6.76026	481.05801	698.14203	8.96126	583.31866	3.17028	1307.52100	-965.96735	
12	0.110				780.02588	9.70869	-632.97266	-719.49420	6.81606	481.05231	698.10498	8.95625	583.37097	3.07941	1307.51453	-966.00677	
13	0.120				780.08746	9.72134	-632.97504	-719.50824	6.76667	480.99670	698.12921	8.96438	583.34674	3.08933	1307.51685	-966.00055	
14	0.130				780.03027	9.66799	-632.96832	-719.50592	6.80786	481.03897	698.15247	8.95630	583.30963	3.12595	1307.48669	-966.01892	
15	0.140				780.05322	9.68249	-632.95154	-719.45911	6.78016	481.04654	698.12836	8.97940	583.33789	3.20740	1307.48535	-965.92102	
16	0.150				780.06049	9.68911	-632.95752	-719.48785	6.81334	481.04819	698.15771	8.97110	583.33411	3.11873	1307.51050	-965.96906	
17	0.160				780.06818	9.69816	-632.92694	-719.49426	6.79982	481.03995	698.11047	8.93730	583.32806	3.11552	1307.52771	-965.96967	
18	0.170				780.03961	9.69808	-632.91718	-719.50116	6.77935	481.05984	698.14307	8.96686	583.33838	3.16273	1307.49890	-965.91449	
19	0.180				780.10626	9.72001	-632.88013	-719.19043	6.35195	481.14288	698.15967	8.97424	583.34222	3.13064	1307.48669	-965.98938	
20	0.190				780.03741	9.70205	-632.91357	-719.17523	6.33065	481.17242	698.15540	8.96305	583.34052	3.12043	1307.50781	-965.92969	
21	0.200				780.05829	9.67769	-632.89087	-719.47784	6.76474	481.00848	698.12689	8.96998	583.35101	3.06207	1307.48206	-965.96313	
22	0.210				780.11298	9.68764	-632.92822	-719.15924	6.32044	481.10541	698.12823	8.95710	583.32239	3.19537	1307.51135	-965.92035	
23	0.220				780.09521	9.72334	-632.92279	-719.46613	6.77082	481.03497	698.15125	8.97526	583.34784	3.17422	1307.53455	-965.99384	
24	0.230				780.03265	9.68840	-632.97833	-719.17865	6.34331	481.09671	698.17017	8.93342	583.32904	3.08190	1307.50842	-965.99451	
25	0.240				780.10767	9.70449	-632.93195	-719.46912	6.73439	481.04471	698.10486	8.95087	583.33173	3.16695	1307.51123	-965.95227	
26	0.250				780.12512	9.66357	-632.86896	-719.46143	6.74769	481.05969	698.14148	8.95626	583.35223	3.08663	1307.50305	-965.98566	
27	0.260				780.04840	9.66767	-632.92798	-719.48322	6.76916	481.06903	698.13135	8.97452	583.31891	3.16531	1307.52258	-965.92737	
28	0.270				780.08002	9.66270	-632.91119	-719.48975	6.76988	481.03729	698.12671	8.96180	583.32709	3.13845	1307.47180	-965.94098	
29	0.280				780.07233	9.65624	-632.94153	-719.47107	6.78830	481.01672	698.14557	8.95023	583.30664	3.21639	1307.47546	-965.93121	
30	0.290				780.01733	9.67066	-632.96912	-719.49280	6.78179	481.02176	698.13477	8.95382	583.33685	3.14913	1307.50696	-965.99146	
31	0.300				780.01727	9.73259	-632.94012	-719.19232	6.30552	481.12778	698.13202	8.95272	583.32642	3.15152	1307.49988	-965.93677	
32	0.310				780.04510	9.67360	-632.96747	-719.47510	6.77225	481.02551	698.11652	8.97490	583.34027	3.18055	1307.48914	-965.96704	
33	0.320				780.07788	9.66964	-632.92224	-719.14893	6.33204	481.18094	698.14716	8.96706	583.34729	3.12404	1307.53198	-965.96619	
34	0.330				780.07458	9.67288	-632.91608	-719.17450	6.29657	481.16153	698.10498	8.96992	583.34406	3.13492	1307.48535	-965.95544	
35	0.340				780.04968	9.72728	-632.92297	-719.49768	6.77734	481.04922	698.09723	8.97343	583.34406	3.12387	1307.52966	-965.95050	
36	0.350				780.02393	9.72073	-632.99939	-719.47687	6.79192	481.03189	698.10168	8.97022	583.37616	3.16793	1307.49597	-965.98535	
37	0.360				780.10272	9.68665	-632.93866	-719.48694	6.78877	481.00549	698.13867	8.95710	583.38391	3.10441	1307.49780	-965.94611	
38	0.370				780.08545	9.70441	-632.96082	-719.50311	6.78643	481.01605	698.13171	8.95415	583.34589	3.17526	1307.51819	-965.91827	
39	0.380				780.09546	9.65776	-632.96716	-719.46558	6.72465	481.05310	698.14740	8.96197	583.35474	3.12689	1307.50989	-965.94049	
40	0.390				780.10687	9.67159	-632.93042	-719.13153	6.27769	481.14893	698.13184	8.95698	583.34302	3.08886	1307.50732	-965.96600	
41	0.400				780.07764	9.69430	-632.93408	-719.49121	6.78193	481.04688	698.12299	8.95088	583.33881	3.10369	1307.54211	-965.97180	
42	0.410				780.10590	9.75667	-632.91901	-719.18439	6.40007	481.08453	698.16010	8.98282	583.34308	3.15175	1307.53247	-965.95117	
43	0.420				780.17181	9.77705	-632.89783	-719.50305	6.81517	481.03064	698.12433	8.93250	583.34644	3.23322	1307.47302	-965.95898	
44	0.430				780.07373	9.73975	-632.90063	-719.46869	6.78252	481.06940	698.13849	8.93971	583.36334	3.19263	1307.54236	-965.95172	
45	0.440				780.11084	9.58318	-632.88080	-719.46460	6.72055	481.05673	698.14380	8.94232	583.33972	3.11567	1307.49854	-965.98004	
46	0.450				779.99860	9.70889	-632.95715	-719.47333	6.74609	481.07840	698.12622	8.95078	583.36414	3.20770	1307.44153	-965.91608	
47	0.460				780.03711	9.79304	-632.98022	-719.45850	6.81476	481.05197	698.16638	8.94132	583.35199	3.18371	1307.51172	-965.90997	
48	0.470				780.08350	9.80814	-632.99915	-719.47955	6.79148	481.02826	698.10431	8.98390	583.36450	3.09933	1307.58118	-965.98328	
49	0.480				780.05145	9.75204	-633.02008	-719.46735	6.82110	481.01236	698.14777	8.97028	583.35046	3.12399	1307.52051	-966.01990	
50	0.490				780.23181	9.74739	-632.81732	-719.45593	6.77524	481.05249	698.08380	8.97111	583.36157	3.11778	1307.49170	-965.97070	
51	0.500				780.37762	9.76362	-632.70514	-719.19086	6.32881	481.15002	698.15625	8.97758	583.36285	3.23706	1307.48694	-965.99420	
52	0.510				780.27594	9.79558	-632.73572	-719.49341	6.78604	481.05368	698.15857	8.92047	583.32428	3.12540	1307.46753	-966.05536	
53	0.520				780.28754	9.79687	-632.72162	-719.17731	6.39574	481.15750	698.15784	8.93419	583.35443	3.12029	1307.51917	-965.99689	
54	0.530				780.28967	9.81364	-632.76617	-719.46301	6.81448	481.03363	698.12561	8.96189	583.34723	3.05040	1307.52576	-966.02594	
55	0.540				780.27197	9.80834	-632.79504	-719.46521	6.79267	480.99670	698.10406	8.95846	583.35254	3.09877	1307.45154	-966.06079	
56	0.550				780.23016	9.80431	-632.82257	-719.47675	6.78246	481.07819	698.13147	8.98687	583.30695	3.15662	1307.42212	-966.02234	
57	0.560				780.28925	9.76194	-632.77557	-719.16595	6.30675	481.16568	698.09387	8.97821	583.32813	3.07966	1307.47852	-965.99683	
58	0.570				780.26849	9.80242	-632.77789	-719.46460	6.76433	481.09415	698.18280	8.97160	583.33423	3.19969	1307.47461	-965.95007	
59	0.580				780.26007	9.86941	-632.80383	-719.18286	6.40457	481.12253	698.10406	8.98636	583.35822	3.16447	1307.52490	-965.98651	
60	0.590				780.27960	9.83011	-632.78644	-719.18866	6.37559	481.05368	698.11963	8.95529	583.33038	3.18680	1307.48059	-966.02911	
61	0.600				780.27075	9.80662	-632.73688	-719.49341	6.81596	481.00153	698.09491	8.95539	583.32428	3.20149	1307.49609	-965.99286	
62	0.610				780.26727	9.80831	-632.72296	-719.50543	6.75739	481.03397	698.10742	8.93126	583.33990	3.13961	1307.48962	-965.97760	
63	0.620				780.26923	9.75848	-632.81439	-719.50055	6.78005	481.09052	698.10779	8.90304	583.36011	3.12951	1307.52722	-965.99988	
64	0.630				780.24548	9.78902	-632.77075	-719.45721	6.76244	481.08185	697.98218	8.81332	583.33868	3.21868	1307.52478	-965.94818	
65	0.640				780.31207	9.84363	-632.80933	-719.46680	6.79450	481.03799	697.75616	8.59905	583.22296	3.23761	1307.53235	-965.90405	
66	0.650				780.26056	9.82519	-632.77130	-719.19110	6.38162	481.10712	697.73981	8.60850	583.26691	3.14790	1307.53442	-965.85687	
67	0.660				780.24347	9.77696	-632.81409	-719.48059	6.78921	481.04697	697.69897	8.56850	583.02124	3.15521	1307.48047	-965.86279	
68	0.670				780.24854	9.71650	-632.74371	-719.48590	6.79134	481.05734	697.74823	8.65765	582.96075	3.16194	1307.50720	-965.82526	
69	0.680				780.23773	9.75441	-632.80664	-719.48785	6.79444	481.04169	697.54089	8.46977	582.77985	3.21561	1307.45056	-965.81512	
70	0.690				780.36475	9.83043	-632.72827	-719.17822	6.41684	481.10492	697.40088	8.40419	582.58679	3.20098	1307.51831	-965.81531	
71	0.700				780.32892	9.83655	-632.78180	-719.49103	6.79110	481.03445	697.26959	8.22276	582.57880	3.15604	1307.58606	-965.84924	
72	0.710				780.27960	9.79440	-632.77094	-719.19757	6.38299	481.11502	697.07269	8.02657	582.44299	3.18086	1307.53296	-965.88715	
73	0.720				780.22675	9.79497	-632.83264	-719.46741	6.78825	481.05490	697.05853	8.05440	582.38916	3.17254	1307.53589	-965.89398	
74	0.730				780.25201	9.80716	-632.79932	-719.47235	6.79923	481.08762	697.04187	8.12134	582.31134	3.11526	1307.51709	-965.91956	
75	0.740				780.35785	9.78635	-632.73212	-719.48779	6.82888	481.00955	697.10907	8.12280	582.21991	3.10868	1307.56763	-965.98218	
76	0.750				780.20734	9.80486	-632.80688	-719.48108	6.81955	481.04214	697.08575	8.15052	582.26904	3.14585	1307.56897	-965.96130	
77	0.760				780.29675	9.82800	-632.75616	-719.22858	6.38558	481.10474	697.05487	8.09885	582.41602	3.21235	1307.54346	-965.99689	
